# xmcd
#
# Track frame offsets:
#	150
#	8117
#	15600
#	26812
#	61842
#	69745
#	76547
#	83362
#	99192
#	114060
#	126877
#	143260
#	156522
#	166202
#	179215
#	185770
#	197722
#	208585
#	213932
#	225380
#	234087
#	253857
#	264640
#	276117
#	284552
#	293002
#	296032
#	307505
#	319092
#	328552
#	336852
#
# Disc length: 4690 seconds
#
# Revision: 0
# Processed by: cddbd v1.5.1PL0 Copyright (c) Steve Scherf et al.
# Submitted via: dBpowerAMP V4.0
#
DISCID=ac12501f
DTITLE=Bessie Jones - Put Your Hand on Your Hip and Let Your Backbone Slip #1
DYEAR=1900
DGENRE=Blues
TTITLE0=So Glad I'm Here
TTITLE1=Johanna
TTITLE2=Yonder Come Day
TTITLE3=Kindlin' Wood
TTITLE4=Shoo Turkey
TTITLE5=Turn My Body Round
TTITLE6=Riley
TTITLE7=Titanic
TTITLE8=Amazing Grace
TTITLE9=You Better Mind
TTITLE10=Oh Death
TTITLE11=Daniel in the Lion's Den
TTITLE12=May Be the Last Time, I Don't Know
TTITLE13=Way Go, Lily
TTITLE14=Walk Daniel
TTITLE15=Draw Me a Bucket of Water
TTITLE16=Steal Up, My Young Lady
TTITLE17=Juba
TTITLE18=Nana Thread Needle
TTITLE19=Shoo Lie Loo
TTITLE20=Old Bill Rolling Pin
TTITLE21=Down in the Valley
TTITLE22=Soup, Soup
TTITLE23=Josephine
TTITLE24=Way Down Yonder in the Brickyard
TTITLE25=Bob-a-Needle
TTITLE26=Peep Squirrel
TTITLE27=Old Lady from Brewster
TTITLE28=Hambone
TTITLE29=Oh Green Fields, Roxie
TTITLE30=Little Johnny Brown
EXTD=
EXTT0=
EXTT1=
EXTT2=
EXTT3=
EXTT4=
EXTT5=
EXTT6=
EXTT7=
EXTT8=
EXTT9=
EXTT10=
EXTT11=
EXTT12=
EXTT13=
EXTT14=
EXTT15=
EXTT16=
EXTT17=
EXTT18=
EXTT19=
EXTT20=
EXTT21=
EXTT22=
EXTT23=
EXTT24=
EXTT25=
EXTT26=
EXTT27=
EXTT28=
EXTT29=
EXTT30=
PLAYORDER=
